<svg width="18" height="24" viewBox="0 0 18 24" xmlns="http://www.w3.org/2000/svg" xmlns:xlink="http://www.w3.org/1999/xlink"><title>9EBE85BB-C838-4CAE-B5EB-7E257A08F24C</title><defs><path id="a" d="M0 23.99h17.365V0H0z"/></defs><g fill="none" fill-rule="evenodd"><path d="M15.006 23.99H2.359a.967.967 0 0 1-.97-.966V6.893h14.587v16.131a.967.967 0 0 1-.97.965z" fill="#999"/><mask id="b" fill="#fff"><use xlink:href="#a"/></mask><path fill="#FEFEFE" mask="url(#b)" d="M3.895 21.769h1.212V9.166H3.895zM8.076 21.769h1.212V9.166H8.076zM12.258 21.769h1.212V9.166h-1.212z"/><path d="M17.365 5.288H0V3.377c0-.533.434-.965.97-.965h15.425c.535 0 .97.432.97.965v1.911zM5.985 1.085h5.394V0H5.985z" fill="#999" mask="url(#b)"/></g></svg>