<svg width="15" height="20" viewBox="0 0 15 20" xmlns="http://www.w3.org/2000/svg" xmlns:xlink="http://www.w3.org/1999/xlink"><title>6585A5B2-03A1-4E23-BE28-C8F933330D9A</title><defs><path id="a" d="M0 19.991h14.398V0H0z"/></defs><g fill="none" fill-rule="evenodd"><path d="M12.442 19.991H1.956a.804.804 0 0 1-.804-.804V5.744h12.094v13.443c0 .444-.36.804-.804.804z" fill="#0278BC"/><mask id="b" fill="#fff"><use xlink:href="#a"/></mask><path fill="#FEFEFE" mask="url(#b)" d="M3.23 18.14h1.004V7.639H3.23zM6.696 18.14h1.006V7.639H6.696zM10.164 18.14h1.005V7.639h-1.005z"/><path d="M14.398 2.814v1.593H0V2.814c0-.444.36-.804.804-.804h12.79c.443 0 .804.36.804.804M4.963.905h4.472V0H4.963z" fill="#0278BC" mask="url(#b)"/></g></svg>