<svg width="16" height="16" viewBox="0 0 16 16" xmlns="http://www.w3.org/2000/svg"><title>C96F813D-5A9E-4EC0-B0BD-E7793DF01CC0</title><path d="M5.648 9.317c2.046.053 3.665-1.65 3.69-3.586A3.667 3.667 0 0 0 5.68 1.998a3.67 3.67 0 0 0-3.685 3.674C2 7.687 3.634 9.336 5.648 9.317m3.27.981c-2.426 1.67-5.61 1.27-7.51-.903a5.646 5.646 0 0 1-.134-7.302A5.653 5.653 0 0 1 8.645.849c.89.56 1.586 1.296 2.06 2.231.471.928.685 1.908.608 2.959-.076 1.047-.411 1.99-1.024 2.896.07.051.156.089.205.154.164.216.367.289.64.274.381-.02.715.145.981.408a534.346 534.346 0 0 1 3.445 3.445c.727.733.501 2.074-.402 2.566a1.717 1.717 0 0 1-2.04-.315c-1.094-1.122-2.21-2.223-3.321-3.327a1.413 1.413 0 0 1-.44-1.014c0-.304-.097-.51-.319-.687-.043-.034-.074-.085-.12-.14" fill="#95A7B7" fill-rule="evenodd"/></svg>