<svg width="20" height="20" viewBox="0 0 20 20" xmlns="http://www.w3.org/2000/svg" xmlns:xlink="http://www.w3.org/1999/xlink"><title>D057E33A-D5D5-49C0-9DB1-9E440FD7BD4A</title><defs><path id="a" d="M19.983 0H0v19.954h19.983z"/></defs><g fill="none" fill-rule="evenodd"><mask id="b" fill="#fff"><use xlink:href="#a"/></mask><path d="M10.881 19.908c-.27-.043-.485-.214-.7-.434-.918-.941-1.857-1.863-2.79-2.79-.18-.178-.375-.364-.657-.213a.53.53 0 0 0-.235.252c-.392 1.064-1.555 1.697-2.618 1.588-1.091-.112-1.948-.974-2.204-2.077-.216-.928.419-2.321 1.55-2.696.413-.137.469-.417.159-.727-1-1.001-2.004-1.998-3.006-2.997-.507-.507-.509-1.396.008-1.901.764-.75 1.532-1.495 2.311-2.23.097-.09.314-.182.394-.135.126.074.252.263.258.408.031.742.345 1.35.84 1.874.737.781 2.02.888 3.032.269C8.235 7.479 8.7 6.21 8.254 5.127c-.415-1.005-1.2-1.549-2.299-1.65-.16-.014-.364-.122-.447-.251-.114-.18.003-.36.16-.518.763-.767 1.509-1.55 2.269-2.319.506-.513 1.213-.52 1.727-.014 1.008.993 2.006 1.996 3.01 2.993.37.368.676.308.878-.166.63-1.479 2.532-1.982 3.796-.993 1.544 1.207 1.23 3.184-.147 4.063-.146.093-.318.143-.474.22-.36.174-.4.397-.115.683.938.938 1.85 1.904 2.83 2.797.534.487.58 1.049.52 1.67-.013.142-.141.292-.252.404-.776.787-1.555 1.572-2.352 2.338-.12.116-.373.213-.507.164-.13-.047-.248-.289-.265-.456-.161-1.53-1.163-2.387-2.597-2.437-.823-.028-1.527.294-1.958 1.045-.492.858-.5 1.722.015 2.577.471.78 1.167 1.18 2.079 1.25.153.012.383.144.421.269.046.15-.022.399-.134.522-.415.458-.867.882-1.306 1.319-.274.273-.558.537-.819.822-.233.254-.475.42-.797.476-.206.035-.307.02-.609-.027" fill="#798C9C" mask="url(#b)"/></g></svg>