<svg width="27" height="27" viewBox="0 0 27 27" xmlns="http://www.w3.org/2000/svg" xmlns:xlink="http://www.w3.org/1999/xlink"><title>E77EE63B-AE2C-4915-9745-B90D078E1274</title><defs><path id="a" d="M0 26.45h26.56V0H0z"/></defs><g fill="none" fill-rule="evenodd"><mask id="b" fill="#fff"><use xlink:href="#a"/></mask><path d="M26.56 11.75s-3.13 3.07-5.5 3.84c-3.28 1.06-8.17-2.76-13.2.57l2.67 7.86c.33.96-.18 2.01-1.15 2.33-.96.33-2.01-.18-2.33-1.15L.1 4.78c-.33-.97.18-2.01 1.15-2.34a1.834 1.834 0 0 1 2.33 1.15L4 4.82c.74-.85 1.86-1.73 3.4-1.9 3.08-.33 10 2.5 13.83-2.92 3.42 7.17 5.33 11.75 5.33 11.75" fill="#329CDA" mask="url(#b)"/></g></svg>